<svg width="257" height="227" viewBox="0 0 257 227" fill="none" xmlns="http://www.w3.org/2000/svg">
<g clip-path="url(#clip0_270_2273)" filter="url(#filter0_d_270_2273)">
<g filter="url(#filter1_d_270_2273)">
<path d="M226.99 165.38C226.922 165.042 226.82 164.637 226.718 164.535L226.65 164.4V164.332C226.447 164.028 226.548 164.197 226.481 164.129L226.277 163.859C226.005 163.487 225.699 163.149 225.394 162.811C224.137 161.526 222.779 160.545 221.353 159.666C215.681 156.184 209.772 153.749 204.135 151.247C198.396 148.779 192.759 146.851 187.427 144.992C182.061 143.2 177.001 141.475 172.315 139.886C164.3 137.249 157.441 135.017 152.177 133.36C152.245 132.65 152.279 131.94 152.279 131.23C152.279 121.56 146.234 113.309 137.71 109.962C138.321 106.141 140.223 94.7125 142.804 79.0573C144.332 69.3532 146.166 58.0598 147.762 45.8535C148.068 42.7766 148.645 39.6997 148.339 36.3861C148.102 33.1739 146.472 29.5559 143.245 27.9329C142.464 27.5272 141.615 27.1891 140.732 27.02C140.529 26.9862 140.257 26.9186 140.019 26.9186H139.408L138.185 26.8509C136.555 26.8171 134.925 26.7833 133.261 26.7495C129.967 26.7495 126.673 26.7495 123.345 26.9186C120.017 27.1214 116.723 27.2905 113.361 28.1696C112.512 28.4401 111.697 28.643 110.746 29.3531C110.474 29.5898 110.203 29.8603 110.135 29.9955L110.033 30.1308V30.1984C109.829 30.5027 109.931 30.3336 109.863 30.4013L109.727 30.7056C109.523 31.1113 109.388 31.5509 109.252 31.9904C108.742 33.6811 108.539 35.3717 108.437 37.0285C108.131 43.6557 108.844 49.9787 109.422 56.0987C110.033 62.2864 111.086 68.1359 112.036 73.715C113.055 79.2602 114.006 84.5012 114.889 89.3363C116.519 97.9923 117.979 105.33 119.066 110.807C111.527 114.56 106.331 122.303 106.331 131.264C106.331 131.467 106.331 131.636 106.331 131.839C102.833 133.191 91.7286 137.451 76.4807 143.335C67.1758 146.987 56.3426 151.213 44.8303 156.048C41.9437 157.299 39.0232 158.483 36.1706 160.14C33.3519 161.763 30.6691 164.501 30.0918 168.119C29.8541 169.878 30.0578 171.703 30.9408 173.394C31.7558 174.848 32.5709 176.268 33.3859 177.722C35.0499 180.596 36.7819 183.436 38.5817 186.243C40.4155 189.049 42.3173 191.788 44.6265 194.358C45.2378 195 45.8491 195.609 46.5962 196.15C46.9698 196.42 47.3773 196.691 47.9206 196.894C48.0565 196.961 48.1923 196.995 48.3621 197.029C48.5319 197.063 48.8375 197.097 48.9055 197.097H49.0753C49.313 197.097 49.2451 197.097 49.3469 197.097H49.6865C51.5543 196.826 53.1504 196.15 54.7126 195.44C60.7574 192.397 65.9193 188.474 70.9792 184.823C76.0732 181.137 80.6577 177.147 85.0385 173.462C89.3514 169.708 93.4266 166.158 97.1961 162.878C103.954 156.927 109.557 151.889 113.768 148.102C117.878 151.856 123.311 154.189 129.322 154.189C134.416 154.189 139.102 152.498 142.94 149.692C145.792 151.957 155.029 159.227 167.764 169.269C175.541 175.321 184.574 182.388 194.524 189.692C197.071 191.45 199.483 193.445 202.573 194.764C205.493 196.116 209.467 196.454 212.489 194.425C213.236 193.952 213.915 193.377 214.493 192.701C214.629 192.532 214.798 192.329 214.934 192.126L215.24 191.619L215.885 190.571C216.7 189.151 217.549 187.764 218.364 186.344C219.994 183.504 221.556 180.596 223.017 177.654C224.477 174.679 225.903 171.703 226.752 168.356C226.922 167.477 227.126 166.665 226.99 165.482V165.38ZM129.322 137.587C125.79 137.587 122.904 134.713 122.904 131.196C122.904 127.68 125.79 124.806 129.322 124.806C132.854 124.806 135.74 127.68 135.74 131.196C135.74 134.713 132.854 137.587 129.322 137.587Z" fill="#DA2536"/>
</g>
</g>
<defs>
<filter id="filter0_d_270_2273" x="0.907972" y="0.907972" width="255.184" height="228.531" filterUnits="userSpaceOnUse" color-interpolation-filters="sRGB">
<feFlood flood-opacity="0" result="BackgroundImageFix"/>
<feColorMatrix in="SourceAlpha" type="matrix" values="0 0 0 0 0 0 0 0 0 0 0 0 0 0 0 0 0 0 127 0" result="hardAlpha"/>
<feOffset/>
<feGaussianBlur stdDeviation="14.546"/>
<feComposite in2="hardAlpha" operator="out"/>
<feColorMatrix type="matrix" values="0 0 0 0 1 0 0 0 0 0 0 0 0 0 0 0 0 0 0.25 0"/>
<feBlend mode="normal" in2="BackgroundImageFix" result="effect1_dropShadow_270_2273"/>
<feBlend mode="normal" in="SourceGraphic" in2="effect1_dropShadow_270_2273" result="shape"/>
</filter>
<filter id="filter1_d_270_2273" x="16.5104" y="16.5104" width="224.014" height="197.326" filterUnits="userSpaceOnUse" color-interpolation-filters="sRGB">
<feFlood flood-opacity="0" result="BackgroundImageFix"/>
<feColorMatrix in="SourceAlpha" type="matrix" values="0 0 0 0 0 0 0 0 0 0 0 0 0 0 0 0 0 0 127 0" result="hardAlpha"/>
<feOffset dy="3.25051"/>
<feGaussianBlur stdDeviation="6.7448"/>
<feComposite in2="hardAlpha" operator="out"/>
<feColorMatrix type="matrix" values="0 0 0 0 1 0 0 0 0 0 0 0 0 0 0 0 0 0 0.25 0"/>
<feBlend mode="normal" in2="BackgroundImageFix" result="effect1_dropShadow_270_2273"/>
<feBlend mode="normal" in="SourceGraphic" in2="effect1_dropShadow_270_2273" result="shape"/>
</filter>
<clipPath id="clip0_270_2273">
<rect width="197" height="170.347" fill="white" transform="translate(30 30)"/>
</clipPath>
</defs>
</svg>
