<svg width="31" height="31" viewBox="0 0 31 31" fill="none" xmlns="http://www.w3.org/2000/svg">
<path d="M18.6038 17.3333C18.8601 16.7753 19.0032 16.1541 19.0032 15.5007C19.0032 13.072 17.0347 11.1035 14.606 11.1035C12.1784 11.1035 10.21 13.072 10.21 15.5007C10.21 17.9295 12.1784 19.898 14.606 19.898" stroke="white" stroke-width="1.78846" stroke-linecap="square"/>
<path d="M3.61523 12.4787V18.5225L7.01689 19.883L6.49466 23.5076L11.7289 26.5289L14.6071 24.2647L17.4842 26.5289L22.7184 23.5076L22.1962 19.8818L25.5966 18.5225V12.4787L22.1974 11.1183L22.7196 7.49369L17.4854 4.47119L14.6071 6.73658L11.7277 4.47119L6.49346 7.49369L7.0157 11.1183" stroke="white" stroke-width="1.78846" stroke-linecap="square"/>
</svg>
